<svg id="图层_1" data-name="图层 1" xmlns="http://www.w3.org/2000/svg" viewBox="0 0 100 100"><defs><style>.cls-1{fill:#db5602;}</style></defs><title>03-0健康评估-01</title><path class="cls-1" d="M49.69,21.73c3.25-3.16,5.89-6.49,9.23-8.82C67.23,7.11,76.34,6.43,85.37,11,94.86,15.76,100,23.71,100,34.48c0,2.9-.77,5.81-1.27,8.7-.25,1.49-1.2,2-2.76,2-5.38-.08-10.76.08-16.14-.06-3.68-.1-6,1.62-7.56,4.74-.83,1.65-1.72,3.26-2.58,4.89l-1-.07-1.13-4.8a61.21,61.21,0,0,0-1.48-6.15A6.54,6.54,0,0,0,59.58,39a6.46,6.46,0,0,0-6.22,4.2c-1.57,3.58-2.65,7.38-3.9,11.1-.72,2.17-1.35,4.36-2,6.55l-1-.06c-.69-3.73-1.28-7.49-2.09-11.19-1.27-5.82-2.65-11.61-4.06-17.4A9.64,9.64,0,0,0,39,29.5c-2.43-4-6.88-4.25-9.79-.62-2.74,3.41-3.81,7.55-4.7,11.7-1.67,7.73-1.61,7.75-9.41,7.75-3.11,0-6.22.13-9.32-.09A4,4,0,0,1,3,46.61c-8.43-15.5,2-35.88,19.49-38.1C33.07,7.17,41.6,10.84,48,19.43Z"/><path class="cls-1" d="M34.63,37c.41,1.56.9,3.1,1.22,4.68,1.39,7,2.63,14,4.17,20.89a18.36,18.36,0,0,0,2.62,6c2.42,3.67,6.47,3.83,9,.24a27.29,27.29,0,0,0,3.55-7.53C56.37,57.47,57,53.49,58,49.61a29.13,29.13,0,0,1,1.24-3.3l.87,0c.38,1.91.72,3.83,1.15,5.73a31.76,31.76,0,0,0,1.49,5.67c2.19,5,8.12,5.84,11.32,1.37,5.81-8.1,4.83-6.31,13.9-6.51,1.56,0,3.12,0,4.93,0-6,6.44-11.81,12.68-17.62,18.91Q65.49,82,55.66,92.47c-4.09,4.38-7.14,4.29-11.17,0C34.4,81.56,24.22,70.79,14.14,59.93A28.25,28.25,0,0,1,11.53,56c1.44-.18,2.87-.48,4.32-.52,2.72-.08,5.45-.1,8.18,0,2.26.09,4-.78,4.69-2.83,1.26-3.54,2.22-7.2,3.35-10.79.53-1.67,1.16-3.3,1.74-5Z"/></svg>