<svg id="图层_1" data-name="图层 1" xmlns="http://www.w3.org/2000/svg" viewBox="0 0 100 100"><defs><style>.cls-1{fill:#db5602;}</style></defs><title>04-1信息录入-01</title><path class="cls-1" d="M2,21.71v-1.2a3.48,3.48,0,0,1,2-1.94q13.18-4.87,26.34-9.8C37.94,6,45.5,3.13,53,.26a3.79,3.79,0,0,1,3.23.22C62.17,3.43,68.06,6.4,74,9.3a4.88,4.88,0,0,1,2.43,2.31c.46,1,1,1.92,1.34,2.93q5.53,14.73,11,29.48L99.15,71.73c.8,2.14.26,3.3-1.87,4.09L76.36,83.63a6.19,6.19,0,0,0-.6.33h1c4.43,0,8.85,0,13.28,0a3.69,3.69,0,0,1,4,3.87q.11,4.12,0,8.25C94,98.63,92.45,100,89.9,100H11.75a3.72,3.72,0,0,1-4.06-4.06c0-2.62,0-5.25,0-7.88a5.53,5.53,0,0,1,.1-1.19A3.7,3.7,0,0,1,11.64,84c4.22,0,8.45,0,12.68,0h1c-.15-.45-.26-.77-.38-1.09L23,77.75,13.48,52.27Q8.93,40.09,4.38,27.91C3.61,25.84,2.8,23.78,2,21.71Zm5.85.89c.11.32.18.55.27.78L17.31,48q6.58,17.62,13.16,35.24a.92.92,0,0,0,1,.73q14.44,0,28.87,0a3,3,0,0,0,1-.18L89,73.48l4.67-1.75L72.86,15.93l-.65.22c-3.58,1.33-7.17,2.66-10.74,4-1.95.73-3.18.21-3.9-1.73L54.2,9.37C53.76,8.2,53.32,7,52.86,5.82Zm51.27-15L59,7.72l2.61,7,6.7-2.51Z"/><path class="cls-1" d="M35.41,55.56a2.48,2.48,0,0,1,1.87-2.1c3.65-1.35,7.3-2.72,10.94-4.08l16.63-6.2a2.8,2.8,0,0,1,2.32,0,2.39,2.39,0,0,1,1.45,2.34A2.36,2.36,0,0,1,67,47.78c-2.56,1-5.14,1.93-7.71,2.89-6.67,2.49-13.33,5-20,7.43a4.25,4.25,0,0,1-2.1.21C36.06,58.12,35.36,57,35.41,55.56Z"/><path class="cls-1" d="M41.75,73.14a2.61,2.61,0,0,1,1.9-2.66l7-2.62,20.28-7.56a7.2,7.2,0,0,1,1-.32,2.54,2.54,0,0,1,2.93,1.64,2.5,2.5,0,0,1-1.52,3.18c-1.9.76-3.83,1.45-5.74,2.17L45.44,75.23a2.54,2.54,0,0,1-3.58-1.53A4,4,0,0,1,41.75,73.14Z"/><path class="cls-1" d="M29.28,39.56a2.52,2.52,0,0,1,1.92-2.47l18.25-6.8,9.47-3.53a2.58,2.58,0,0,1,2.31.1,2.52,2.52,0,0,1-.36,4.57c-2.24.86-4.48,1.69-6.73,2.53-7,2.61-14,5.23-21,7.79a4.09,4.09,0,0,1-2.1.18A2.28,2.28,0,0,1,29.28,39.56Z"/></svg>