<svg id="图层_1" data-name="图层 1" xmlns="http://www.w3.org/2000/svg" viewBox="0 0 70 70"><defs><style>.cls-1{fill:#db5602;}</style></defs><title>03-0健康评估</title><path class="cls-1" d="M34.84,18.69a43.11,43.11,0,0,1,4.82-4.61,12.82,12.82,0,0,1,13.83-1,13,13,0,0,1,7.64,12.28,27.21,27.21,0,0,1-.66,4.55C60.33,30.68,59.84,31,59,31c-2.81,0-5.62,0-8.43,0a4,4,0,0,0-3.95,2.48c-.43.86-.9,1.7-1.35,2.55l-.53,0-.59-2.51a32,32,0,0,0-.78-3.22A3.42,3.42,0,0,0,40,27.69a3.37,3.37,0,0,0-3.25,2.19c-.82,1.87-1.39,3.86-2,5.8-.38,1.13-.7,2.28-1.05,3.42l-.55,0c-.36-2-.67-3.91-1.09-5.85-.66-3-1.39-6.07-2.12-9.09a5,5,0,0,0-.66-1.39,3,3,0,0,0-5.11-.33,14.18,14.18,0,0,0-2.46,6.12c-.87,4-.84,4-4.92,4-1.62,0-3.25.07-4.87,0a2.07,2.07,0,0,1-1.47-.85C6,23.59,11.48,12.94,20.61,11.78A13.5,13.5,0,0,1,34,17.49Z"/><path class="cls-1" d="M27,26.67c.21.82.47,1.62.64,2.45.73,3.64,1.38,7.3,2.18,10.92a9.59,9.59,0,0,0,1.37,3.13c1.26,1.92,3.38,2,4.7.12a14.26,14.26,0,0,0,1.85-3.93c.62-2,1-4.07,1.48-6.1a15.22,15.22,0,0,1,.65-1.72h.46c.2,1,.38,2,.6,3a16.6,16.6,0,0,0,.78,3,3.31,3.31,0,0,0,5.92.72c3-4.23,2.52-3.3,7.26-3.4.82,0,1.63,0,2.58,0l-9.21,9.88L38,55.66c-2.14,2.29-3.73,2.24-5.84,0-5.27-5.68-10.59-11.31-15.86-17A14.76,14.76,0,0,1,14.9,36.6c.75-.09,1.5-.25,2.26-.27,1.42,0,2.85-.05,4.27,0a2.25,2.25,0,0,0,2.45-1.48c.66-1.85,1.16-3.76,1.75-5.64.27-.87.6-1.73.91-2.59Z"/></svg>