<svg id="图层_1" data-name="图层 1" xmlns="http://www.w3.org/2000/svg" viewBox="0 0 100 100"><defs><style>.cls-1{fill:#db5602;}</style></defs><title>06平台简介</title><path class="cls-1" d="M100,50.16C100,77.54,77.37,100,49.87,100S0,77.36,0,49.85C0,22.76,22.69,0,49.8,0A50.25,50.25,0,0,1,100,50.16ZM52.94,43.21c0,4.26-.13,7.92.1,11.56a3.06,3.06,0,0,0,2.11,2.11c5,.16,10,.15,15-.1a3.43,3.43,0,0,0,2.3-2.38,46.85,46.85,0,0,0,0-8.75c-.07-.86-1.27-2.29-2-2.31C64.76,43.13,59.07,43.21,52.94,43.21ZM46.88,56.85c.1-1.55.21-2.51.23-3.47.21-10.23.21-10.23-10-10.23-10.56,0-10.56,0-9.67,10.69,0,.24-.07.58.06.72.71.79,1.45,2.17,2.23,2.19C35.32,56.94,40.92,56.85,46.88,56.85Zm25-19.62C70.29,32.58,69,28.57,67.55,24.6a2.23,2.23,0,0,0-1.6-1.22c-4.23-.1-8.46-.06-12.67-.06v13.9ZM53.19,76.78c4.27,0,8.28.06,12.29-.05a2.57,2.57,0,0,0,2-1.19c1.5-4,2.83-8.16,4.36-12.71H53.19Zm-6.1-39.6c0-4.1.06-8-.06-11.84,0-.64-.81-1.79-1.28-1.81-4-.17-8-.16-12.06-.12a1.51,1.51,0,0,0-1.09.85c-1.46,4.17-2.85,8.36-4.38,12.92ZM28.66,62.87c.37,1.77.61,3.19,1,4.57C32,76.69,32,76.69,41.4,76.69A13,13,0,0,0,45,76.57c.8-.24,1.92-1.2,2-1.89.19-3.85.09-7.71.09-11.81Zm49.47-6c4.34,0,8.43,0,12.53-.06.54,0,1.51-.82,1.52-1.27.08-3.76.52-7.66-.41-11.2-.26-1-4.73-.89-7.28-1.2a11.54,11.54,0,0,0-4-.08c-.9.22-2.22,1.23-2.26,2C78,48.79,78.13,52.56,78.13,56.89ZM21.92,43.73C9.49,41,6.53,43.13,7.59,53.78c0,.24-.06.59.07.71.92.86,1.83,2.3,2.85,2.4a49.55,49.55,0,0,0,9.13,0,3.06,3.06,0,0,0,2.17-2C22,51.22,21.92,47.56,21.92,43.73ZM26.42,23c-3.54.28-7.46-.58-9.49,1-4,3.07-5.87,8-7.5,13.37,4.23,0,7.77.13,11.28-.09a3.42,3.42,0,0,0,2.4-2C24.29,31.65,25.16,27.86,26.42,23Zm63.8,14.33C87.68,25.59,82,21.16,73.86,24.06c1,3.76,1.91,7.54,3.06,11.25a3.18,3.18,0,0,0,2.09,2C82.64,37.49,86.28,37.38,90.23,37.38ZM9.73,62.65C12.47,74.44,18.06,78.79,26.16,76c-1-3.86-1.92-7.74-3-11.57a2.79,2.79,0,0,0-1.85-1.74C17.53,62.56,13.79,62.65,9.73,62.65Zm67.81.18L73.58,77c3.7-.38,8,.46,9.82-1.29,3.29-3.24,5.07-8,7.91-12.86ZM63,83.7l-.73-1c-9.66-1-11.17.43-8.42,9.09Zm-.77-66.25.79-1.2L53.27,7.85v9.61Zm-16.41,74,.94-.85v-8H37.6l-.63,1Zm1-74.13V8.84a16.42,16.42,0,0,0-9.65,8.52Zm-24-.51C30,19.57,31.53,14.17,34,10.39ZM66.33,89.48,77,83.13C70.18,80.46,68.57,85.49,66.33,89.48ZM23,83.18l10.9,6.38C31.51,85.8,30.18,80.34,23,83.18Zm54-66.33-10.21-6C68.67,15.33,70.74,19.3,77.06,16.86Z"/></svg>