<svg id="图层_1" data-name="图层 1" xmlns="http://www.w3.org/2000/svg" viewBox="0 0 100 100"><defs><style>.cls-1{fill:#db5602;}</style></defs><title>05-0模型预测-01</title><path class="cls-1" d="M92.34,2c-1.91,1.09-3.8,2.23-5.75,3.26C83.39,7,82.51,9.81,84.3,12.9c.65,1.12,1.27,2.25,1.92,3.37,1.68,2.89,4.21,3.63,7.17,2,2.21-1.19,4.37-2.46,6.6-3.71.38,8.21-8.65,15.59-17,13.2-1.65-.47-2.49,0-3.54,1.1Q53.81,54.62,28.06,80.27c-1.8,1.79-2.94,3.33-2.4,6.23.87,4.71-3.06,10.46-7.72,12.31a12.7,12.7,0,0,1-14.46-3.6A12.4,12.4,0,0,1,8.53,75.54c2-.77,4.44-.42,6.65-.75a5.94,5.94,0,0,0,3.18-1.11Q37.3,54.92,56.1,36c5.25-5.25,10.55-10.46,15.76-15.77a2.83,2.83,0,0,0,.64-2.3C70.18,9.6,76,.64,85.84,0c2.1-.14,4.27.79,6.41,1.23ZM7.75,96.29a5.26,5.26,0,0,1,5.06.88c1,.75,2.86-2.47,5.06-1.13.11.07.67-.28.68-.44.05-2.27,2-2.53,3.58-3.3l-.53-2.22a22.6,22.6,0,0,0,1.55-3.25c-1.9-1.3-1.44-3-1.06-4.23l-3.92-3.69-5.45-1.85c-1,2-2.94,1.61-5.06,1C7.91,80.91,6,81.57,3.8,82c.81,1.83,1,3.41-.6,4.67a1.08,1.08,0,0,0-.1,1c1.87,1.29,1.45,3.09.92,5C6.4,92.73,7.59,93.87,7.75,96.29Z"/><path class="cls-1" d="M55.22,95.13c-2.85,0-5.56.08-8.27-.07a2.44,2.44,0,0,1-1.62-1.42c-.76-2.06-1.18-4.25-2-6.29a4.27,4.27,0,0,0-2.11-1.91c-1.37-.64-3-.79-4.31-1.48-1.61-.83-2.79-.11-4,.69s-2.3,1.87-3.53,2.89a4.25,4.25,0,0,1,1.31-5c2.54-2.32,4.94-4.8,7.3-7.32a2.35,2.35,0,0,1,3-.67c9.92,3.58,19,1.69,27-4.9a24.15,24.15,0,0,0,8.09-14,27,27,0,0,0-1.66-16.54l7-7c1.3.08,2.5.19,3.7.21.6,0,1.2-.23,1.8-.22,1.73,0,4.48-.47,5,.36,1.38,2.25,1.87,5.07,2.56,7.7.11.41-.5,1.19-1,1.53-1.84,1.35-3.81,2.54-5.62,3.93a3.18,3.18,0,0,0-1.12,2,24.27,24.27,0,0,0,0,5.18A4.24,4.24,0,0,0,88,55.42,45.42,45.42,0,0,0,93.3,59a1.71,1.71,0,0,1,.89,2.44,42.84,42.84,0,0,0-1.82,5.39c-.46,1.89-1.58,2.08-3.23,1.89-2.12-.25-4.26-.3-6.4-.34A1.88,1.88,0,0,0,81.4,69a45.4,45.4,0,0,0-3.57,5,3.67,3.67,0,0,0,0,2.56c.58,2,1.48,3.84,2,5.82a2.71,2.71,0,0,1-.63,2.29c-1.6,1.41-3.41,2.57-5.12,3.85a2.15,2.15,0,0,1-3-.09c-.69-.6-1.43-1.15-2.17-1.69-4.7-3.45-4.72-3.49-10.06-1.29a3.41,3.41,0,0,0-1.51,2C56.51,90,55.92,92.51,55.22,95.13Z"/><path class="cls-1" d="M57.49,14a39,39,0,0,1,3.75,1.08c2.51,1,5,2.18,7-.87,1.42,2.83.51,4.67-1.61,6.38-2,1.58-3.64,3.48-5.44,5.25-10.11-4.25-21.83-2.51-29.65,5.39A26.66,26.66,0,0,0,26.28,61c-2.3,2.27-4.64,4.65-7.08,6.93a3.15,3.15,0,0,1-1.89.46c-2.3.08-4.6.18-6.89.07a2.61,2.61,0,0,1-2-1.1,33.33,33.33,0,0,1-1.92-5.84,2.62,2.62,0,0,1,.83-2.15,32.2,32.2,0,0,1,5.11-3.45c1.59-.84,1.53-2,1.43-3.44-.12-1.8,0-3.61-.1-5.41A2.78,2.78,0,0,0,13,45.2a52.17,52.17,0,0,0-5.4-3.82c-1.28-.77-1.72-1.64-1.21-3,0-.07.06-.14.09-.21.67-1.94.83-4.44,2.16-5.65,1.05-1,3.55-.31,5.4-.39,1.44-.06,3.35.43,4.23-.3a19.63,19.63,0,0,0,3.88-5.27c.33-.57,0-1.64-.24-2.41-.63-2-1.49-4-2-6.07a2.68,2.68,0,0,1,.64-2.27c2.15-1.8,4.46-3.4,6.73-5.09,2.45,1.78,4.61,3.47,6.91,4.94a4.68,4.68,0,0,0,2.62.34c5.66-.34,7.1-4.47,7.92-9C45,5,46,4.51,47.82,4.49c7-.1,7-.13,8.86,6.68C56.94,12.12,57.22,13.06,57.49,14Z"/></svg>