<svg id="图层_1" data-name="图层 1" xmlns="http://www.w3.org/2000/svg" viewBox="0 0 100 100"><defs><style>.cls-1{fill:#db5602;}</style></defs><title>02-1活动轨迹-01</title><path class="cls-1" d="M0,76.54c.14-.15.37-.28.41-.45.8-3.54,3.18-5.89,6-7.86,5-3.46,10.6-5.25,16.4-6.64,1.1-.27,2.21-.53,3.33-.7a1.29,1.29,0,0,1,1.06.33c1.53,2.25,3,4.55,4.59,7-.7.16-1.3.33-1.91.43A57,57,0,0,0,15,72.88a28.44,28.44,0,0,0-5.33,3.34c-1.58,1.21-1.52,2.49,0,3.87a21.69,21.69,0,0,0,7.33,4.14,72.53,72.53,0,0,0,16.39,3.95,123.31,123.31,0,0,0,20.4,1.06,104.86,104.86,0,0,0,22.51-2.86A44.19,44.19,0,0,0,87.3,82.26,17.73,17.73,0,0,0,90.46,80c1.42-1.29,1.37-2.41,0-3.75a21.19,21.19,0,0,0-7.3-4.19,65.08,65.08,0,0,0-12.83-3.42c-.54-.09-1.08-.18-1.62-.28a2,2,0,0,1-.43-.23c1-1.54,2-3.06,3-4.57.61-.92,1.06-2.24,1.92-2.61s2.12.2,3.19.44c6.1,1.39,12,3.22,17.26,6.83,2.83,2,5.19,4.32,6,7.86,0,.17.27.3.41.45v3.13a3.26,3.26,0,0,0-.44.77A11.85,11.85,0,0,1,95.5,86.6a34.65,34.65,0,0,1-11.72,6.23A98.7,98.7,0,0,1,56.2,97.51a112.64,112.64,0,0,1-21.11-.75c-4.51-.66-9-1.35-13.46-2.39-6.1-1.42-12-3.54-16.9-7.59A12,12,0,0,1,.44,80.43,3.35,3.35,0,0,0,0,79.66Q0,78.1,0,76.54Z"/><path class="cls-1" d="M49.07,0c8.22.05,14.62,2.46,20.12,7.28a29,29,0,0,1,9.41,16.31c1.23,5.82-.06,11.31-2.36,16.67A136.86,136.86,0,0,1,64.08,62c-2.8,4.21-5.72,8.36-8.66,12.48a6.91,6.91,0,0,1-10.83.05,229,229,0,0,1-17-26.32A78.54,78.54,0,0,1,22.21,36a24.35,24.35,0,0,1,.63-17.21C26.77,8.88,34.08,2.83,44.47.52A35.09,35.09,0,0,1,49.07,0Zm1,16.3c-6.7-.25-12.15,5.59-12.29,11.89a12.24,12.24,0,1,0,24.48.39C62.28,21.93,56.63,16.08,50,16.3Z"/></svg>