<svg id="图层_1" data-name="图层 1" xmlns="http://www.w3.org/2000/svg" viewBox="0 0 70 70"><defs><style>.cls-1{fill:#db5602;}</style></defs><title>02-4热力图</title><path class="cls-1" d="M11.23,29.7q0-.45,0-.9a9.23,9.23,0,0,1,1.4-2.19c1.9-1.66,3.92-3.19,5.89-4.77,4.34-3.48,8.7-6.92,13-10.44,2.5-2,3.74-2.09,6.24,0,.57.48,1.16.94,1.74,1.4,4.3,3.42,8.66,6.78,12.89,10.29,2,1.67,4.49,2.9,5.73,5.41v1.2a7.28,7.28,0,0,0-.45.92c-2.47,7.37-5,14.72-7.36,22.12a5.72,5.72,0,0,1-3.3,4H22.06c-.83-.9-2-1.65-2.43-2.71-1.9-5.22-3.57-10.52-5.35-15.78C13.3,35.4,12.25,32.56,11.23,29.7Zm38.89,17c-.68-.19-1.2-.31-1.71-.5-1.17-.44-1.88-.33-2.26,1.13s-1.87,2.16-3.4,2.17c-5.36,0-10.72,0-16.08,0-2.12,0-3.15-.88-3.72-2.93-1.3-4.67-2.55-9.35-3.94-14A4,4,0,0,1,20.36,28c4.1-3.47,8.26-6.88,12.39-10.3a3.15,3.15,0,0,1,3.73-.1q6.38,5.28,12.73,10.59a3.84,3.84,0,0,1,1.24,4.19C49.76,35,49,37.53,48.24,40.1a2.45,2.45,0,0,0-.07,1.55c.63,1.27,1.42,2.46,2.35,4C52.34,40.13,54.08,35,55.7,29.76A2.33,2.33,0,0,0,55,27.89c-1.43-1.31-3-2.46-4.51-3.67-4.94-3.94-9.89-7.86-14.81-11.82a1.31,1.31,0,0,0-2,0C31.5,14.18,29.25,15.9,27,17.67c-4.15,3.32-8.29,6.66-12.45,10a2.25,2.25,0,0,0-.75,2.87q3.51,10.26,6.88,20.56c1.22,3.72.51,3.38,4.7,3.37H45.7c1,0,1.92,0,2.3-1.17C48.69,51.13,49.38,49,50.13,46.66Zm-5.52-1.45-21.4-5.3c.58,2.13,1.13,3.87,1.52,5.64a2.07,2.07,0,0,0,2.39,1.83q7.57-.08,15.14,0C43.62,47.37,44.46,47,44.61,45.21ZM34,19.94l-.26-.19c-.15.11-.31.21-.45.33-3.66,3-7.26,6.18-11,9.1a2.88,2.88,0,0,0-1.11,3.71c.55,1.63,1,3.31,1.46,5,.13.43.34.83.61,1.49ZM46.46,38.78c.75-2.57,1.52-4.76,2-7a3,3,0,0,0-1-2.25C46,28.12,44.37,26.9,42.8,25.6l-7-5.82-.31.26Z"/></svg>