<svg id="图层_1" data-name="图层 1" xmlns="http://www.w3.org/2000/svg" viewBox="0 0 100 100"><defs><style>.cls-1{fill:#db5602;}</style></defs><title>04-0防疫通知-01</title><path class="cls-1" d="M50.37,100C23.76,100.45.29,78.22.33,50.1a50,50,0,1,1,100,2.52C99.15,78.18,77.31,100.38,50.37,100ZM67.29,68.17a17.86,17.86,0,0,0,2.92-6.39,2.62,2.62,0,0,1,.63-1.35c4.24-3.73,6.48-8.6,7.93-13.89A44.28,44.28,0,0,0,80,40.19a2.37,2.37,0,0,0-1.07-1.88c-1.86-1-1.94-1-1.28-2.94,1.08-3.23,2-6.49,1.29-9.95-.45-2.27-1.22-4.52-3.37-5.61A10.57,10.57,0,0,1,71.33,16C70,14,68.87,11.92,67.5,10a6.52,6.52,0,0,0-2.26-2,9.65,9.65,0,0,0-6.46-.9A81.8,81.8,0,0,1,47.64,8.37a25.46,25.46,0,0,0-17.38,8.27,6.91,6.91,0,0,1-3.12,2c-3.42,1-5.86,3.2-6.07,6.94a38.39,38.39,0,0,0,.51,7.54c.34,2.39,1,4.73,1.56,7.19-1.77.16-2.3,1.33-2.48,2.72a7.39,7.39,0,0,0,0,2.39c.54,2.62,1.08,5.25,1.8,7.82a8.63,8.63,0,0,0,5,6.12,1.63,1.63,0,0,1,.66,1.16c.38,3,1.31,5.71,3.69,7.82C39.76,54.14,58.95,54.1,67.29,68.17Zm-1,8.31A16.73,16.73,0,1,0,49.5,93.16,16.62,16.62,0,0,0,66.28,76.49Z"/><path class="cls-1" d="M43.52,19.78c3.28,5.63,8.33,5,13.36,4.13,2.31-.38,4.55-1.18,6.85-1.63,3.21-.64,6.19-.14,8.61,2.29a8,8,0,0,1,.77,1c.54.75,1.07,1.5,1.68,2.36-1,1.28-.52,3.14-.75,4.84-.47,3.45-.81,6.9-2.64,10.33C71.25,41.89,71.13,41,71,40c-.5-4.28-2.43-6.65-6.66-7.16-5.92-.71-11.88-1.24-17.83-1.46A36.87,36.87,0,0,0,33.8,33.61c-2.52.82-3.65,2.76-4.42,4.93S28.19,43,27.53,45.69a41.21,41.21,0,0,1-1.35-5.82c-.39-4.56.38-8.93,3.2-12.71,2.23-3,5.06-4.7,9-4,1.51.26,2.55-.71,3.51-1.73C42.37,20.89,42.9,20.39,43.52,19.78Z"/><path class="cls-1" d="M59.85,36.72A7,7,0,0,1,67,44a7.18,7.18,0,0,1-14.36-.29A7,7,0,0,1,59.85,36.72Zm-.15,1.63A5.6,5.6,0,0,0,54.21,44a5.68,5.68,0,0,0,5.57,5.43,5.52,5.52,0,1,0-.07-11Z"/><path class="cls-1" d="M37.94,36.72a6.92,6.92,0,0,1,7,7.23,7,7,0,0,1-7.17,7.1,7.24,7.24,0,0,1-7.18-7.33A7.14,7.14,0,0,1,37.94,36.72Zm5.39,7.13a5.49,5.49,0,0,0-5.57-5.49,5.56,5.56,0,0,0-5.51,5.46,5.63,5.63,0,0,0,5.7,5.57A5.46,5.46,0,0,0,43.33,43.85Z"/><path class="cls-1" d="M54,78.94a1.85,1.85,0,0,1,1.92,1.81,1.91,1.91,0,1,1-3.81,0A1.87,1.87,0,0,1,54,78.94Z"/><path class="cls-1" d="M59,68.89a1.91,1.91,0,1,1,.1-3.82,1.91,1.91,0,0,1-.1,3.82Z"/><path class="cls-1" d="M39.23,71.35a1.92,1.92,0,1,1-1.86-1.9A1.92,1.92,0,0,1,39.23,71.35Z"/><path class="cls-1" d="M52.1,72.07a1.89,1.89,0,0,1,3.79-.1A2,2,0,0,1,54,74,1.92,1.92,0,0,1,52.1,72.07Z"/><path class="cls-1" d="M63.82,71.29A1.88,1.88,0,0,1,62,73.21a1.94,1.94,0,0,1-2-1.78,2.19,2.19,0,0,1,2-2.06A2,2,0,0,1,63.82,71.29Z"/><path class="cls-1" d="M36.23,78.27a1.92,1.92,0,0,1-1.87-1.88c0-.92,1.19-2.09,2-1.91a1.88,1.88,0,0,1,1.73,2A1.73,1.73,0,0,1,36.23,78.27Z"/><path class="cls-1" d="M45.32,76.4a1.89,1.89,0,0,1-1.87,1.86,1.68,1.68,0,0,1-1.87-1.77,1.94,1.94,0,0,1,1.88-2A2.06,2.06,0,0,1,45.32,76.4Z"/><path class="cls-1" d="M45.2,78.93a1.87,1.87,0,0,1,1.94,1.79,2,2,0,0,1-1.79,2,2.14,2.14,0,0,1-2-1.94A1.92,1.92,0,0,1,45.2,78.93Z"/><path class="cls-1" d="M59.06,87.77a1.9,1.9,0,0,1-1.9-1.86A1.82,1.82,0,0,1,59.11,84,1.88,1.88,0,0,1,61,85.87,2.09,2.09,0,0,1,59.06,87.77Z"/><path class="cls-1" d="M42.65,64.13a1.8,1.8,0,0,1,1.82-1.9,1.84,1.84,0,0,1,1.9,1.82,2,2,0,0,1-1.9,2A1.94,1.94,0,0,1,42.65,64.13Z"/><path class="cls-1" d="M47.14,72a1.91,1.91,0,0,1-3.83.1,2,2,0,0,1,2-2A1.88,1.88,0,0,1,47.14,72Z"/><path class="cls-1" d="M37.24,83.39a1.85,1.85,0,0,1-1.85-1.88,2,2,0,0,1,1.88-1.89,2.11,2.11,0,0,1,2,2A1.93,1.93,0,0,1,37.24,83.39Z"/><path class="cls-1" d="M61.88,83.34A1.82,1.82,0,0,1,60,81.52a2,2,0,0,1,2-1.93,1.86,1.86,0,0,1,1.78,1.85A1.77,1.77,0,0,1,61.88,83.34Z"/><path class="cls-1" d="M46.34,88.72a1.93,1.93,0,0,1-2,1.93,1.91,1.91,0,0,1-1.81-1.83,2,2,0,0,1,1.94-2A1.85,1.85,0,0,1,46.34,88.72Z"/><path class="cls-1" d="M57.62,76.25a1.71,1.71,0,0,1-1.78,2,1.84,1.84,0,0,1-1.94-1.78,2.11,2.11,0,0,1,2-2A1.86,1.86,0,0,1,57.62,76.25Z"/><path class="cls-1" d="M40.21,68.91a2.07,2.07,0,0,1-2-1.84,2.13,2.13,0,0,1,2-2A2,2,0,0,1,42.08,67,2,2,0,0,1,40.21,68.91Z"/><path class="cls-1" d="M42.08,85.72a1.91,1.91,0,0,1-1.91,2,1.94,1.94,0,0,1-1.93-1.84A1.91,1.91,0,0,1,40.09,84,1.83,1.83,0,0,1,42.08,85.72Z"/><path class="cls-1" d="M49.43,74.52a1.86,1.86,0,0,1,2,1.79,1.84,1.84,0,1,1-2-1.79Z"/><path class="cls-1" d="M49.65,80.72a1.85,1.85,0,0,1,1.79,1.94,1.84,1.84,0,0,1-3.67.06A1.79,1.79,0,0,1,49.65,80.72Z"/><path class="cls-1" d="M56.53,64.06a1.92,1.92,0,0,1-1.76,2A2,2,0,0,1,52.87,64a1.83,1.83,0,0,1,3.66.06Z"/><path class="cls-1" d="M62.88,78.28c-.92-.11-1.75-.45-1.78-1.74a1.83,1.83,0,0,1,1.8-2,2,2,0,0,1,1.91,1.86A1.85,1.85,0,0,1,62.88,78.28Z"/><path class="cls-1" d="M54.64,86.83a1.81,1.81,0,0,1,1.89,1.84,1.78,1.78,0,0,1-1.77,2,1.9,1.9,0,0,1-.12-3.8Z"/><path class="cls-1" d="M50,68.42a1.57,1.57,0,0,1,1.47,1.7,1.83,1.83,0,1,1-3.66.08C47.78,69.08,48.45,68.43,50,68.42Z"/><path class="cls-1" d="M51.45,63.08a1.7,1.7,0,0,1-1.82,1.86,1.74,1.74,0,0,1-1.86-1.81,1.87,1.87,0,0,1,1.82-1.92A1.84,1.84,0,0,1,51.45,63.08Z"/><path class="cls-1" d="M55.7,43.88a4.07,4.07,0,1,1,4,4.09A4.12,4.12,0,0,1,55.7,43.88Zm4.08-2.1a2.1,2.1,0,0,0-2,2.09,1.92,1.92,0,0,0,2,2,1.9,1.9,0,0,0,2.1-1.94A2.1,2.1,0,0,0,59.79,41.79Z"/><path class="cls-1" d="M33.71,43.81a4.21,4.21,0,0,1,4-4.07,4,4,0,0,1,4.12,4.1A4.09,4.09,0,0,1,37.79,48,4.14,4.14,0,0,1,33.71,43.81Zm4.08,2a1.93,1.93,0,0,0,2.09-2,2.22,2.22,0,0,0-2.1-2.08,2.07,2.07,0,0,0-2,2.15A1.82,1.82,0,0,0,37.79,45.84Z"/></svg>