<svg id="图层_1" data-name="图层 1" xmlns="http://www.w3.org/2000/svg" viewBox="0 0 100 100"><defs><style>.cls-1{fill:#db5602;}</style></defs><title>02-3高速路况-01</title><path class="cls-1" d="M22.6,98.2c.4-2.9.82-5.8,1.2-8.7q1.85-14,3.68-27.94l1.89-14.37c0-.2.07-.39.11-.65h18.4v12.2h5.21V46.54c.42,0,.71-.07,1-.07,5.27,0,10.53,0,15.8,0,.79,0,1,.28,1.1,1q3.55,24.88,7.14,49.76c0,.33.05.66.08,1h-25V89.46H48V98.2ZM48,83.55h5.08V64.43H48Z"/><path class="cls-1" d="M0,33.8l.8,0H99.2l.8,0v8.4H91.39v5.45H77.18v-5.4H22.69v5.4H7.84V42.2H0Z"/><path class="cls-1" d="M64.2,0Q65,6,65.88,12.07q1.3,9.2,2.6,18.41a3.56,3.56,0,0,1,0,.44H53.17V14.69H48V30.79H31.61l1.1-8.49L35.6,0H47.8c0,1.06.11,2.11.13,3.17,0,1.85,0,3.7,0,5.61H53.2V0Z"/></svg>