<svg id="图层_1" data-name="图层 1" xmlns="http://www.w3.org/2000/svg" viewBox="0 0 70 70"><defs><style>.cls-1{fill:#db5602;}</style></defs><title>01LOGO</title><path class="cls-1" d="M16.84,41.56a1.28,1.28,0,0,1-.24,1.06,1.94,1.94,0,0,1-.8.58,1.38,1.38,0,0,1-1.61-.44A1.43,1.43,0,0,1,14,41.12a1.45,1.45,0,0,1,1.37-.85,1.24,1.24,0,0,1,.89.28.39.39,0,0,0,.49.08c.82-.45,1.65-.87,2.47-1.32s1.72-1,2.58-1.47a2.9,2.9,0,0,0,.53-.4.39.39,0,0,0,.12-.3c-.16-.85-.36-1.7-.51-2.55a.47.47,0,0,0-.37-.43c-.56-.14-1.12-.26-1.69-.38-.23,0-.47-.06-.7-.12a.25.25,0,0,0-.31.13,1.51,1.51,0,0,1-2.36.26,1.51,1.51,0,0,1,.72-2.54,1.45,1.45,0,0,1,1.59.59.4.4,0,0,0,.47.18c.71-.16,1.42-.28,2.13-.45a1.79,1.79,0,0,0,.48-.3,1.86,1.86,0,0,0-.43-.34c-.73-.28-1.46-.55-2.2-.8-1.09-.36-2.19-.69-3.29-1a3.39,3.39,0,0,1-.52-.17c-.2-.1-.32,0-.44.12a1.52,1.52,0,0,1-2.48-.21,1.43,1.43,0,0,1,.06-1.61,1.51,1.51,0,0,1,2.74.64c0,.14.07.18.21.19,1.35.13,2.71.28,4.06.41.77.07,1.53.11,2.3.15a1.36,1.36,0,0,0,.38,0c.06,0,.15-.06.16-.11a.21.21,0,0,0-.09-.17,6.74,6.74,0,0,0-.84-.44c-.54-.21-1.08-.38-1.63-.58-.24-.09-.47-.18-.7-.28a.24.24,0,0,0-.35.1,1.51,1.51,0,0,1-2.76-.61A1.5,1.5,0,0,1,17.85,25a1.35,1.35,0,0,1,1.11.92.29.29,0,0,0,.31.21c.95,0,1.9.11,2.85.15a8,8,0,0,0,1.12,0c.33,0,.39-.14.26-.44A7.84,7.84,0,0,0,23,24.9c-.2-.33-.43-.64-.64-1a.24.24,0,0,0-.27-.12,1.46,1.46,0,0,1-1.68-.89,1.5,1.5,0,0,1,1.27-2.09,1.33,1.33,0,0,1,.93.21c.17.12.25,0,.38-.11l-.41-.51c-.5-.61-1-1.21-1.49-1.83a.42.42,0,0,0-.54-.16,1.51,1.51,0,1,1-1-2.84,1.59,1.59,0,0,1,.91-.07,1.53,1.53,0,0,1,1,1.16,2.78,2.78,0,0,1,0,.82.25.25,0,0,0,.09.28L26,21.4a6.43,6.43,0,0,0,.7.46c.24.14.39.08.38-.2A14.8,14.8,0,0,0,27,20.11c-.12-.93-.27-1.86-.41-2.79-.05-.35-.11-.7-.16-1.06a.34.34,0,0,0-.29-.34,1.39,1.39,0,0,1-.87-.68,1.51,1.51,0,1,1,2.8-.7,1.31,1.31,0,0,1-.54,1.09.35.35,0,0,0-.15.5c.37.92.72,1.85,1.09,2.77.16.4.33.8.52,1.18s.24.34.58.19c.72-.31,1.44-.62,2.16-.91A.35.35,0,0,0,32,19c0-.75-.05-1.5-.11-2.25s-.15-1.4-.22-2.1-.15-1.47-.22-2.2a.26.26,0,0,0-.23-.27A1.47,1.47,0,0,1,30,10.79a1.49,1.49,0,0,1,1.2-1.58A1.52,1.52,0,0,1,33,11.15a1.45,1.45,0,0,1-.57.77.22.22,0,0,0-.11.31c.17.5.33,1,.49,1.51a.67.67,0,0,0,.11.18,5.36,5.36,0,0,0,.12.59q.58,1.78,1.18,3.55a2.76,2.76,0,0,0,.25.51c0,.07.14.15.19.14a.29.29,0,0,0,.18-.18,5.45,5.45,0,0,0,.16-.88c0-.76.07-1.52.11-2.28a.26.26,0,0,0-.17-.27,1.49,1.49,0,0,1-.83-1.61,1.52,1.52,0,0,1,1.23-1.23A1.51,1.51,0,0,1,36.45,15c-.1.07-.18.12-.14.26.27.94.53,1.88.8,2.82a2.34,2.34,0,0,0,.25.54c.12.2.24.21.39,0a3.11,3.11,0,0,0,.41-.55c.25-.46.48-.94.73-1.41s.44-.84.67-1.25a.48.48,0,0,0,0-.57,1.5,1.5,0,0,1,1-2.39,1.41,1.41,0,0,1,1.44.62,1.52,1.52,0,0,1-1.16,2.39.26.26,0,0,0-.18.16c-.12.72-.24,1.45-.34,2.18-.05.38-.08.77-.09,1.16a.37.37,0,0,0,.13.27.24.24,0,0,0,.33-.06c.29-.34.59-.67.88-1s.32-.45.5-.67a.21.21,0,0,0,0-.29,1.52,1.52,0,1,1,2.73-1.11,1.59,1.59,0,0,1-.42,1.32,1.42,1.42,0,0,1-1,.43c-.14,0-.19,0-.21.18-.12.59-.26,1.17-.39,1.76a1.46,1.46,0,0,0,0,.43.22.22,0,0,0,.12.16s.13,0,.18-.08a17.64,17.64,0,0,0,2.45-2.67c.27-.32.53-.64.8-1s.51-.63.78-.94a.22.22,0,0,0,0-.33A1.5,1.5,0,0,1,48,13a1.5,1.5,0,0,1,1.72,2.11,1.37,1.37,0,0,1-1.25.85.6.6,0,0,0-.6.39c-.63,1.2-1.29,2.38-1.92,3.57-.26.49-.48,1-.72,1.52a.64.64,0,0,0-.07.2c0,.22.08.38.27.34.43-.08.87-.16,1.3-.26,0,0,.09-.12.09-.18a1.46,1.46,0,0,1,.93-1.39,1.43,1.43,0,0,1,1.64.29,1.53,1.53,0,0,1-1,2.63.64.64,0,0,1-.49-.08.26.26,0,0,0-.25,0,3.21,3.21,0,0,0-.47.57.22.22,0,0,0,.24.35,4.16,4.16,0,0,0,.84-.25c.75-.32,1.49-.66,2.23-1a.28.28,0,0,0,.1-.22,1.53,1.53,0,0,1,2.66-1.12A1.56,1.56,0,0,1,53.45,23a1.51,1.51,0,0,1-2.12.65c-.2-.13-.27,0-.39.11l-1.63,1.48c-.17.16-.32.35-.48.53a.51.51,0,0,0-.08.59c.32.76.63,1.52,1,2.27a.38.38,0,0,0,.25.21,5.42,5.42,0,0,0,1,0c1.25-.15,2.5-.32,3.71-.48a5.53,5.53,0,0,1,.33-.83,1.51,1.51,0,0,1,2.1-.44,1.55,1.55,0,0,1,.47,2,1.51,1.51,0,0,1-1.83.64,3.72,3.72,0,0,1-.55-.34.33.33,0,0,0-.38-.07L53.2,30c-.75.32-1.51.63-2.26,1a2.79,2.79,0,0,0-.52.33c-.15.11-.15.25,0,.33a3.74,3.74,0,0,0,.73.28c.67.15,1.35.28,2,.4a.26.26,0,0,0,.21-.11,1.59,1.59,0,0,1,1.2-.79,1.54,1.54,0,0,1,1.6,1.08,1.52,1.52,0,0,1-.78,1.78,1.56,1.56,0,0,1-2.05-.64.24.24,0,0,0-.19-.1c-.82.17-1.65.35-2.47.55a.46.46,0,0,0-.3.27c0,.19.15.28.31.33.85.27,1.69.56,2.55.81,1.43.41,2.86.8,4.29,1.19l.23,0a.33.33,0,0,0,.38-.19,1.48,1.48,0,0,1,2-.57,1.52,1.52,0,0,1,.75,1.87,1.5,1.5,0,0,1-1.79,1,1.48,1.48,0,0,1-1.08-1,.22.22,0,0,0-.23-.19L55,37.42c-.7-.06-1.4-.17-2.1-.21-1-.06-1.91-.08-2.87-.12a.32.32,0,0,0-.33.25,20.87,20.87,0,0,1-.82,2A.85.85,0,0,0,49,40.44l1.37,1.39c.22.22.46.43.67.66a.48.48,0,0,0,.58.14,1.51,1.51,0,1,1,.49,3A1.52,1.52,0,0,1,50.56,44a.87.87,0,0,1,0-.12c.06-.41.06-.42-.31-.61L47.8,42.14a1.83,1.83,0,0,0-.5-.13c-.14,0-.22.06-.15.2a3.47,3.47,0,0,0,.35.63c.89,1.13,1.8,2.25,2.7,3.38.34.42.69.84,1,1.27a.27.27,0,0,0,.36.11,1.47,1.47,0,0,1,1.7.5,1.52,1.52,0,1,1-2.68,1.25,1.38,1.38,0,0,1,.1-.95.19.19,0,0,0-.06-.28l-.82-.65a.48.48,0,0,0-.17-.06l-.34-.3c-.08-.08-.14-.17-.23-.24L47,45.11c-.28-.22-.55-.45-.85-.65a7.11,7.11,0,0,0-.75-.45c-.17-.09-.25,0-.21.17a3.17,3.17,0,0,0,.27.68c.34.59.7,1.17,1.05,1.76a.82.82,0,0,0,.63.38,1.5,1.5,0,0,1,1,2.34,1.47,1.47,0,0,1-1.88.54,1.49,1.49,0,0,1-.69-2.13c.1-.18.1-.27-.07-.4-.66-.52-1.31-1.06-2-1.58a1.24,1.24,0,0,0-.33-.16c-.26-.1-.4,0-.41.26a8,8,0,0,0,0,1.06c0,.08.12.17.2.22a1.5,1.5,0,0,1,.76,1.71,1.51,1.51,0,1,1-2.67-1.27.32.32,0,0,0,0-.5,4.62,4.62,0,0,0-.44-.4c-.19-.14-.32-.08-.38.15a.8.8,0,0,0,0,.23c.07,1,.14,2.06.22,3.08.07.81.17,1.62.25,2.44,0,.37.06.74.1,1.11a.33.33,0,0,0,.16.2,1.51,1.51,0,0,1,.24,2.53,1.51,1.51,0,0,1-2.44-1.08,1.47,1.47,0,0,1,1-1.53c.15-.06.17-.12.12-.26-.56-1.74-1.12-3.49-1.69-5.23a2.82,2.82,0,0,0-.55-1.11.56.56,0,0,0-.36.53c-.09.58-.17,1.16-.24,1.74s-.12,1.2-.19,1.79a.33.33,0,0,0,.18.4A1.5,1.5,0,0,1,37.39,54a1.44,1.44,0,0,1-1.58.42,1.46,1.46,0,0,1-1.05-1.35,1.49,1.49,0,0,1,.78-1.42.32.32,0,0,0,.15-.25c-.11-.68-.23-1.36-.37-2s-.28-1.24-.43-1.85a.28.28,0,0,0-.29-.22c-.2,0-.27.14-.33.26-.27.51-.53,1-.77,1.55s-.49,1.11-.73,1.68a3.26,3.26,0,0,0-.17.61c0,.05.05.12.09.18a1.55,1.55,0,0,1-.07,2,1.5,1.5,0,0,1-2.07.13,1.52,1.52,0,0,1,0-2.34,1.56,1.56,0,0,1,.71-.31.35.35,0,0,0,.32-.33c.13-1,.28-2,.41-2.94a4.8,4.8,0,0,0,0-.93.37.37,0,0,0-.2-.25c-.76-.33-1.53-.65-2.29-1-.26-.11-.33-.08-.52.15s-.3.2-.42.33c-.33.37-.63.76-1,1.14l-1.11,1.27c-.34.4-.67.81-1,1.22s-.54.67-.83,1c-.14.15-.16.25,0,.42a1.42,1.42,0,0,1,.16,1.61,1.46,1.46,0,0,1-1.36.84,1.52,1.52,0,0,1-1.45-1.12,1.56,1.56,0,0,1,.7-1.72,1.86,1.86,0,0,1,.95-.19.36.36,0,0,0,.26-.14c.43-.78.84-1.56,1.26-2.34s.75-1.34,1.1-2,.52-1.13.78-1.7a.55.55,0,0,0,.06-.2c0-.14-.07-.24-.2-.16-.34.2-.67.42-1,.63-.15.1-.28.21-.42.32-.41.34-.84.66-1.24,1s-1.08.86-1.6,1.31c-.34.29-.69.58-1.05.85a.3.3,0,0,0-.12.39,1.46,1.46,0,0,1-.12,1.25,1.51,1.51,0,1,1-1-2.23c.05,0,.13,0,.16,0,.27.24.38,0,.54-.15.86-1.06,1.74-2.11,2.6-3.17.44-.55.85-1.11,1.26-1.69a1.81,1.81,0,0,0,.17-.49,1.56,1.56,0,0,0-.5,0c-.55.19-1.09.41-1.62.63s-.79.36-1.2.52a.37.37,0,0,0-.25.33A1.48,1.48,0,0,1,20,44.81a1.52,1.52,0,0,1-.84-2.8,1.5,1.5,0,0,1,1.77.12.25.25,0,0,0,.39,0,6.71,6.71,0,0,1,.47-.51c.3-.26.64-.49.93-.77a6.65,6.65,0,0,0,.73-.83c.15-.2.08-.33-.17-.29a11.28,11.28,0,0,0-1.48.3c-1.12.33-2.23.7-3.34,1Z"/></svg>